HIERARCHY
ROOT hip
{
  OFFSET 0 0 0
  CHANNELS 6 Xposition Yposition Zposition Zrotation Yrotation Xrotation
  JOINT abdomen
  {
    OFFSET 0 20.6881 -0.73152
    CHANNELS 3 Zrotation Xrotation Yrotation
    JOINT chest
    {
      OFFSET 0 11.7043 -0.48768
      CHANNELS 3 Zrotation Xrotation Yrotation
      JOINT neck
      {
        OFFSET 0 22.1894 -2.19456
        CHANNELS 3 Zrotation Xrotation Yrotation
        JOINT head
        {
          OFFSET -0.24384 7.07133 1.2192
          CHANNELS 3 Zrotation Xrotation Yrotation
          JOINT leftEye
          {
            OFFSET 4.14528 8.04674 8.04672
            CHANNELS 3 Zrotation Xrotation Yrotation
            End Site
            {
              OFFSET 1 0 0
            }
          }
          JOINT rightEye
          {
            OFFSET -3.6576 8.04674 8.04672
            CHANNELS 3 Zrotation Xrotation Yrotation
            End Site
            {
              OFFSET 1 0 0
            }
          }
        }
      }
      JOINT rCollar
      {
        OFFSET -2.68224 19.2634 -4.8768
        CHANNELS 3 Zrotation Xrotation Yrotation
        JOINT rShldr
        {
          OFFSET -8.77824 -1.95073 1.46304
          CHANNELS 3 Zrotation Xrotation Yrotation
          JOINT rForeArm
          {
            OFFSET -28.1742 -1.7115 0.48768
            CHANNELS 3 Zrotation Xrotation Yrotation
            JOINT rHand
            {
              OFFSET -22.5879 0.773209 7.07136
              CHANNELS 3 Zrotation Xrotation Yrotation
              JOINT rThumb1
              {
                OFFSET -1.2192 -0.487915 3.41376
                CHANNELS 3 Zrotation Xrotation Yrotation
                JOINT rThumb2
                {
                  OFFSET -3.37035 -0.52449 3.41376
                  CHANNELS 3 Zrotation Xrotation Yrotation
                  End Site
                  {
                    OFFSET -1.78271 -1.18214 1.43049
                  }
                }
              }
              JOINT rIndex1
              {
                OFFSET -7.75947 0.938293 5.60832
                CHANNELS 3 Zrotation Xrotation Yrotation
                JOINT rIndex2
                {
                  OFFSET -2.54057 -0.884171 1.56538
                  CHANNELS 3 Zrotation Xrotation Yrotation
                  End Site
                  {
                    OFFSET -1.62519 -0.234802 1.16502
                  }
                }
              }
              JOINT rMid1
              {
                OFFSET -8.24714 1.18213 3.41376
                CHANNELS 3 Zrotation Xrotation Yrotation
                JOINT rMid2
                {
                  OFFSET -3.10165 -0.590103 1.0647
                  CHANNELS 3 Zrotation Xrotation Yrotation
                  End Site
                  {
                    OFFSET -2.48547 -0.328903 0.83742
                  }
                }
              }
              JOINT rRing1
              {
                OFFSET -8.82822 0.546677 1.51678
                CHANNELS 3 Zrotation Xrotation Yrotation
                JOINT rRing2
                {
                  OFFSET -2.60934 -0.819778 -0.0198488
                  CHANNELS 3 Zrotation Xrotation Yrotation
                  End Site
                  {
                    OFFSET -2.33842 -0.294052 0.168128
                  }
                }
              }
              JOINT rPinky1
              {
                OFFSET -8.27202 -0.0477905 -0.4584
                CHANNELS 3 Zrotation Xrotation Yrotation
                JOINT rPinky2
                {
                  OFFSET -1.82734 -0.647385 -0.700984
                  CHANNELS 3 Zrotation Xrotation Yrotation
                  End Site
                  {
                    OFFSET -1.69225 -0.51767 -0.607171
                  }
                }
              }
            }
          }
        }
      }
      JOINT lCollar
      {
        OFFSET 2.68224 19.2634 -4.8768
        CHANNELS 3 Zrotation Xrotation Yrotation
        JOINT lShldr
        {
          OFFSET 8.77824 -1.95073 1.46304
          CHANNELS 3 Zrotation Xrotation Yrotation
          JOINT lForeArm
          {
            OFFSET 28.1742 -1.7115 0.48768
            CHANNELS 3 Zrotation Xrotation Yrotation
            JOINT lHand
            {
              OFFSET 22.5879 0.773209 7.07136
              CHANNELS 3 Zrotation Xrotation Yrotation
              JOINT lThumb1
              {
                OFFSET 1.2192 -0.487915 3.41376
                CHANNELS 3 Zrotation Xrotation Yrotation
                JOINT lThumb2
                {
                  OFFSET 3.37035 -0.52449 3.41376
                  CHANNELS 3 Zrotation Xrotation Yrotation
                  End Site
                  {
                    OFFSET 1.78271 -1.18214 1.43049
                  }
                }
              }
              JOINT lIndex1
              {
                OFFSET 7.75947 0.938293 5.60832
                CHANNELS 3 Zrotation Xrotation Yrotation
                JOINT lIndex2
                {
                  OFFSET 2.54057 -0.884171 1.56538
                  CHANNELS 3 Zrotation Xrotation Yrotation
                  End Site
                  {
                    OFFSET 1.62519 -0.234802 1.16502
                  }
                }
              }
              JOINT lMid1
              {
                OFFSET 8.24714 1.18213 3.41376
                CHANNELS 3 Zrotation Xrotation Yrotation
                JOINT lMid2
                {
                  OFFSET 3.10165 -0.590103 1.0647
                  CHANNELS 3 Zrotation Xrotation Yrotation
                  End Site
                  {
                    OFFSET 2.48547 -0.328903 0.83742
                  }
                }
              }
              JOINT lRing1
              {
                OFFSET 8.82822 0.546677 1.51678
                CHANNELS 3 Zrotation Xrotation Yrotation
                JOINT lRing2
                {
                  OFFSET 2.60934 -0.819778 -0.0198488
                  CHANNELS 3 Zrotation Xrotation Yrotation
                  End Site
                  {
                    OFFSET 2.33842 -0.294052 0.168128
                  }
                }
              }
              JOINT lPinky1
              {
                OFFSET 8.27202 -0.0477905 -0.4584
                CHANNELS 3 Zrotation Xrotation Yrotation
                JOINT lPinky2
                {
                  OFFSET 1.82734 -0.647385 -0.700984
                  CHANNELS 3 Zrotation Xrotation Yrotation
                  End Site
                  {
                    OFFSET 1.69225 -0.51767 -0.607171
                  }
                }
              }
            }
          }
        }
      }
    }
  }
  JOINT rButtock
  {
    OFFSET -8.77824 4.35084 1.2192
    CHANNELS 3 Zrotation Xrotation Yrotation
    JOINT rThigh
    {
      OFFSET 0 -1.70687 -2.19456
      CHANNELS 3 Zrotation Xrotation Yrotation
      JOINT rShin
      {
        OFFSET 0 -36.8199 0.73152
        CHANNELS 3 Zrotation Xrotation Yrotation
        JOINT rFoot
        {
          OFFSET 0.73152 -45.1104 -5.12064
          CHANNELS 3 Zrotation Xrotation Yrotation
          End Site
          {
            OFFSET -1.1221 -3.69964 12.103
          }
        }
      }
    }
  }
  JOINT lButtock
  {
    OFFSET 8.77824 4.35084 1.2192
    CHANNELS 3 Zrotation Xrotation Yrotation
    JOINT lThigh
    {
      OFFSET 0 -1.70687 -2.19456
      CHANNELS 3 Zrotation Xrotation Yrotation
      JOINT lShin
      {
        OFFSET 0 -36.8199 0.73152
        CHANNELS 3 Zrotation Xrotation Yrotation
        JOINT lFoot
        {
          OFFSET -0.73152 -45.1104 -5.12064
          CHANNELS 3 Zrotation Xrotation Yrotation
          End Site
          {
            OFFSET 1.1221 -3.69964 12.103
          }
        }
      }
    }
  }
}
MOTION
Frames:	7
Frame Time:	0.00833333
-59.7215 82.5657 33.3134 -179.588 4.3176 180.697 -7.57716 16.0802 2.17772 1.35169 2.9877 0.980315 -2.10681 8.77761 -8.60153 14.6808 -11.3834 -13.9037 -0.0 0.0 0.0 -0.0 0.0 0.0 -2.85742e-14 1.36665e-13 -1.22437e-13 53.942 66.2553 28.1313 -28.4156 -34.6612 74.786 -2.55147 -40.5341 -6.90241 2.25543e-09 -9.03969e-09 2.40263e-09 3.80929e-09 -1.56099e-08 4.21885e-09 2.25544e-09 -9.03969e-09 2.40262e-09 7.73091 5.47488 0.417314 2.25543e-09 -9.0397e-09 2.40263e-09 2.90554 0.965183 0.102902 2.25544e-09 -9.0397e-09 2.40263e-09 10.2786 0.731801 0.0259123 2.25543e-09 -9.03969e-09 2.40264e-09 2.22167 -0.733487 -0.20892 -2.847e-14 1.36666e-13 -1.22699e-13 -77.6131 40.8914 9.30565 28.0905 -39.9082 -83.7567 1.3595 -31.1546 4.87387 -1.83556e-09 -1.49974e-08 -3.72293e-09 -3.08035e-09 -2.54929e-08 -6.47437e-09 -1.83556e-09 -1.49974e-08 -3.72293e-09 -7.73091 5.47488 -0.417314 -1.83556e-09 -1.49974e-08 -3.72293e-09 -2.90554 0.965183 -0.102902 -1.83557e-09 -1.49974e-08 -3.72293e-09 -10.2786 0.731801 -0.0259123 -1.83555e-09 -1.49974e-08 -3.72294e-09 -2.22167 -0.733487 0.20892 -2.03217e-16 0.0 -3.88251e-19 1.10096 -26.7187 -5.30298 -0.165301 37.0245 1.35494 -24.6358 -28.426 -39.2185 2.03217e-16 0.0 3.88251e-19 -0.894807 -1.87899 -6.47234 -0.00203457 22.7372 -0.996376 20.7542 -25.4875 36.8683
-59.0966 82.4341 32.8505 -179.434 6.4862 180.851 -6.69334 15.3895 2.03077 1.15028 2.95924 0.921015 -1.7616 8.5609 -8.3728 13.7911 -11.1565 -13.6613 -0.0 0.0 0.0 -0.0 0.0 0.0 -7.52708e-15 9.70064e-14 -2.90077e-13 55.1317 66.3567 27.0186 -28.4174 -34.7174 74.879 -2.54081 -40.4667 -6.88594 1.72263e-09 -8.21816e-09 2.20594e-09 2.89769e-09 -1.41604e-08 3.86173e-09 1.72263e-09 -8.21816e-09 2.20593e-09 7.73091 5.47488 0.417314 1.72263e-09 -8.21817e-09 2.20593e-09 2.90554 0.965183 0.102902 1.72263e-09 -8.21816e-09 2.20594e-09 10.2786 0.731801 0.0259123 1.72262e-09 -8.21816e-09 2.20595e-09 2.22167 -0.733487 -0.20892 -7.4972e-15 9.70081e-14 -2.90275e-13 -78.3224 40.6675 9.83459 28.0796 -39.9733 -83.8728 1.36899 -31.2498 4.89222 -9.19049e-10 -9.53968e-09 -2.84751e-09 -1.51695e-09 -1.61504e-08 -4.94101e-09 -9.19051e-10 -9.53968e-09 -2.84751e-09 -7.73091 5.47488 -0.417314 -9.19048e-10 -9.53967e-09 -2.8475e-09 -2.90554 0.965183 -0.102902 -9.19053e-10 -9.53968e-09 -2.84751e-09 -10.2786 0.731801 -0.0259123 -9.1904e-10 -9.53967e-09 -2.84751e-09 -2.22167 -0.733487 0.20892 -2.03217e-16 0.0 -3.88251e-19 1.93605 -26.1598 -4.82195 -0.150257 36.1019 1.34092 -25.329 -28.4164 -40.1532 2.03217e-16 0.0 3.88251e-19 -0.453501 -1.66769 -5.22757 0.00200579 23.2816 -1.03227 21.6296 -26.2471 37.4097
-58.3574 82.306 32.4025 -179.081 8.6062 180.992 -5.73251 14.7668 1.94395 0.947257 2.91738 0.835017 -1.40213 8.34064 -8.1023 12.9083 -10.9519 -13.4239 -0.0 0.0 0.0 -0.0 0.0 0.0 3.2337e-14 5.57572e-14 -4.73445e-13 56.2909 66.4331 25.975 -28.4186 -34.7563 74.9433 -2.52818 -40.3871 -6.86648 1.20511e-09 -7.60597e-09 2.11183e-09 2.0099e-09 -1.30608e-08 3.68143e-09 1.20511e-09 -7.60597e-09 2.11182e-09 7.73091 5.47488 0.417314 1.20511e-09 -7.60598e-09 2.11183e-09 2.90554 0.965183 0.102902 1.20511e-09 -7.60598e-09 2.11184e-09 10.2786 0.731801 0.0259123 1.2051e-09 -7.60598e-09 2.11184e-09 2.22167 -0.733487 -0.20892 3.22876e-14 5.57606e-14 -4.7358e-13 -78.9843 40.4142 10.3303 28.0686 -40.0368 -83.9869 1.37703 -31.33 4.90772 1.45014e-10 -3.14668e-09 -1.82941e-09 2.98405e-10 -5.19519e-09 -3.15814e-09 1.45011e-10 -3.14668e-09 -1.82941e-09 -7.73091 5.47488 -0.417314 1.45013e-10 -3.14666e-09 -1.8294e-09 -2.90554 0.965183 -0.102902 1.4501e-10 -3.14669e-09 -1.82941e-09 -10.2786 0.731801 -0.0259123 1.4502e-10 -3.14668e-09 -1.82942e-09 -2.22167 -0.733487 0.20892 -2.03217e-16 0.0 -3.88251e-19 3.00775 -25.5179 -4.18728 -0.138121 35.18 1.30862 -25.5808 -28.1259 -40.7455 2.03217e-16 0.0 3.88251e-19 0.183611 -1.65069 -3.85498 0.013232 24.2339 -1.065 22.1778 -26.7682 37.6535
-57.5081 82.1902 31.9548 -178.555 10.8032 181.099 -4.82402 14.2929 1.87375 0.807096 2.87183 0.784176 -1.11364 8.16222 -7.8103 12.1741 -10.8003 -13.0692 -0.0 0.0 0.0 -0.0 0.0 0.0 8.55304e-14 3.49832e-14 -6.36161e-13 57.1388 66.5243 25.2387 -28.4187 -34.7539 74.9386 -2.50872 -40.2642 -6.83649 8.45293e-10 -7.75512e-09 2.21559e-09 1.38843e-09 -1.32613e-08 3.84714e-09 8.45301e-10 -7.75513e-09 2.21558e-09 7.73091 5.47488 0.417314 8.45295e-10 -7.75513e-09 2.21558e-09 2.90554 0.965183 0.102902 8.45299e-10 -7.75513e-09 2.21559e-09 10.2786 0.731801 0.0259123 8.45285e-10 -7.75513e-09 2.21559e-09 2.22167 -0.733487 -0.20892 8.543e-14 3.4988e-14 -6.3626e-13 -79.6166 40.0615 10.7652 28.0609 -40.0803 -84.0657 1.3832 -31.3912 4.91955 1.12338e-09 2.32637e-09 -9.54672e-10 1.96933e-09 4.20408e-09 -1.62516e-09 1.12338e-09 2.32636e-09 -9.54666e-10 -7.73091 5.47488 -0.417314 1.12338e-09 2.32639e-09 -9.54659e-10 -2.90554 0.965183 -0.102902 1.12338e-09 2.32636e-09 -9.54664e-10 -10.2786 0.731801 -0.0259123 1.12339e-09 2.32636e-09 -9.54672e-10 -2.22167 -0.733487 0.20892 -2.03217e-16 0.0 -3.88251e-19 4.25923 -24.7814 -3.32012 -0.126893 34.3182 1.25917 -25.513 -27.7743 -41.0047 2.03217e-16 0.0 3.88251e-19 0.988013 -1.78383 -2.39515 0.0331915 25.6708 -1.08892 22.1924 -26.7888 37.5456
-56.5248 82.0927 31.5025 -177.913 13.1579 181.099 -3.929 14.0222 1.81904 0.772785 2.82425 0.783543 -0.932846 8.04113 -7.48759 11.6303 -10.7165 -12.5469 -0.0 0.0 0.0 -0.0 0.0 0.0 1.79735e-13 4.76052e-14 -8.25912e-13 57.5428 66.6599 24.9244 -28.417 -34.6977 74.8452 -2.47853 -40.072 -6.78981 7.14199e-10 -9.47294e-09 2.78924e-09 1.1483e-09 -1.61239e-08 4.82967e-09 7.14207e-10 -9.47295e-09 2.78923e-09 7.73091 5.47488 0.417314 7.14201e-10 -9.47295e-09 2.78924e-09 2.90554 0.965183 0.102902 7.14205e-10 -9.47295e-09 2.78924e-09 10.2786 0.731801 0.0259123 7.14192e-10 -9.47295e-09 2.78925e-09 2.22167 -0.733487 -0.20892 1.79622e-13 4.76117e-14 -8.26017e-13 -80.2549 39.549 11.1358 28.0573 -40.1002 -84.1018 1.3861 -31.4198 4.9251 2.22139e-09 7.37179e-09 -1.81583e-10 3.85023e-09 1.2923e-08 -2.65749e-10 2.22138e-09 7.37179e-09 -1.81576e-10 -7.73091 5.47488 -0.417314 2.22138e-09 7.37181e-09 -1.81571e-10 -2.90554 0.965183 -0.102902 2.22138e-09 7.37179e-09 -1.81575e-10 -10.2786 0.731801 -0.0259123 2.22139e-09 7.37179e-09 -1.81581e-10 -2.22167 -0.733487 0.20892 -2.03217e-16 0.0 -3.88251e-19 5.8231 -23.8748 -2.0983 -0.117287 33.497 1.18454 -25.0088 -27.3388 -40.8077 2.03217e-16 0.0 3.88251e-19 2.10411 -2.02735 -0.739522 0.0590757 27.695 -1.10273 21.644 -26.2626 37.0681
-55.5132 82.0147 31.0892 -177.287 15.5549 181.101 -3.0007 13.9006 1.7988 0.801394 2.7698 0.800608 -0.809988 7.95198 -7.1281 11.2008 -10.6813 -11.9279 -0.0 0.0 0.0 -0.0 0.0 0.0 3.08162e-13 7.95092e-14 -1.04297e-12 57.6663 66.817 24.8939 -28.4135 -34.6023 74.6884 -2.4415 -39.833 -6.73221 7.24856e-10 -1.2245e-08 3.69977e-09 1.14338e-09 -2.07725e-08 6.39689e-09 7.24864e-10 -1.2245e-08 3.69976e-09 7.73091 5.47488 0.417314 7.24858e-10 -1.2245e-08 3.69977e-09 2.90554 0.965183 0.102902 7.24863e-10 -1.2245e-08 3.69977e-09 10.2786 0.731801 0.0259123 7.2485e-10 -1.2245e-08 3.69978e-09 2.22167 -0.733487 -0.20892 3.08057e-13 7.95178e-14 -1.04311e-12 -80.8773 38.929 11.4549 28.0563 -40.1058 -84.1121 1.38635 -31.4222 4.92557 3.47424e-09 1.265e-08 6.03076e-10 5.99914e-09 2.20779e-08 1.11662e-09 3.47424e-09 1.265e-08 6.03083e-10 -7.73091 5.47488 -0.417314 3.47424e-09 1.265e-08 6.03085e-10 -2.90554 0.965183 -0.102902 3.47424e-09 1.265e-08 6.03084e-10 -10.2786 0.731801 -0.0259123 3.47425e-09 1.265e-08 6.03082e-10 -2.22167 -0.733487 0.20892 -2.03217e-16 0.0 -3.88251e-19 7.64453 -22.8185 -0.611763 -0.111826 32.6963 1.08786 -24.0656 -26.7258 -40.2032 2.03217e-16 0.0 3.88251e-19 3.52041 -2.4137 1.09458 0.0909464 30.2382 -1.11087 20.6527 -25.3099 36.265
-54.5272 81.9555 30.7069 -176.855 17.9691 181.091 -2.15843 13.8468 1.80011 0.82867 2.70833 0.825876 -0.701553 7.87897 -6.75666 10.8502 -10.6745 -11.2716 -0.0 0.0 0.0 -0.0 0.0 0.0 4.13619e-13 1.12209e-13 -1.17984e-12 57.6759 66.9592 25.0039 -28.4087 -34.4838 74.4944 -2.40426 -39.5887 -6.67385 7.82712e-10 -1.46406e-08 4.43485e-09 1.22452e-09 -2.47991e-08 7.66356e-09 7.8272e-10 -1.46406e-08 4.43484e-09 7.73091 5.47488 0.417314 7.82714e-10 -1.46406e-08 4.43485e-09 2.90554 0.965183 0.102902 7.82721e-10 -1.46406e-08 4.43485e-09 10.2786 0.731801 0.0259123 7.82707e-10 -1.46406e-08 4.43486e-09 2.22167 -0.733487 -0.20892 4.13533e-13 1.12219e-13 -1.18001e-12 -81.4165 38.3017 11.7208 28.0575 -40.0993 -84.1001 1.38651 -31.4239 4.92589 4.39355e-09 1.6558e-08 1.22056e-09 7.57513e-09 2.88616e-08 2.20281e-09 4.39355e-09 1.6558e-08 1.22057e-09 -7.73091 5.47488 -0.417314 4.39355e-09 1.6558e-08 1.22057e-09 -2.90554 0.965183 -0.102902 4.39355e-09 1.6558e-08 1.22057e-09 -10.2786 0.731801 -0.0259123 4.39356e-09 1.6558e-08 1.22057e-09 -2.22167 -0.733487 0.20892 -2.03217e-16 0.0 -3.88251e-19 9.40245 -21.7494 0.907759 -0.109705 31.975 0.985992 -22.9787 -26.0442 -39.4548 2.03217e-16 0.0 3.88251e-19 4.97575 -3.00649 2.87807 0.13408 33.1207 -1.11602 19.2561 -23.9065 35.191
